<svg xmlns="http://www.w3.org/2000/svg" viewBox="0 0 512 512"><title>stars-med</title><circle cx="142.04" cy="86.4" r="1.55" fill="#fff"/><circle cx="27.62" cy="112.15" r="1.55" fill="#fff"/><circle cx="81.64" cy="163.72" r="1.55" fill="#fff"/><circle cx="185.75" cy="191.58" r="1.55" fill="#fff"/><circle cx="287.7" cy="260.71" r="1.55" fill="#fff"/><circle cx="290.8" cy="155.89" r="1.55" fill="#fff"/><circle cx="380.69" cy="305.01" r="1.55" fill="#fff"/><circle cx="302.25" cy="354.52" r="1.55" fill="#fff"/><circle cx="167.33" cy="409.7" r="1.55" fill="#fff"/><circle cx="325.9" cy="431.23" r="1.55" fill="#fff"/><circle cx="222.81" cy="464.88" r="1.55" fill="#fff"/><circle cx="375.02" cy="367.82" r="1.55" fill="#fff"/><circle cx="456.27" cy="417.8" r="1.55" fill="#fff"/><circle cx="430.54" cy="338.15" r="1.55" fill="#fff"/><circle cx="454.45" cy="198.68" r="1.55" fill="#fff"/><circle cx="430.5" cy="125.94" r="1.55" fill="#fff"/><circle cx="468.4" cy="74.4" r="1.55" fill="#fff"/><circle cx="105.48" cy="263.26" r="1.55" fill="#fff"/><circle cx="199.77" cy="297.48" r="1.55" fill="#fff"/><circle cx="81.64" cy="316.92" r="1.55" fill="#fff"/><circle cx="214.71" cy="58.06" r="1.55" fill="#fff"/></svg>